<svg width="14" height="14" viewBox="0 0 14 14" fill="none" xmlns="http://www.w3.org/2000/svg">
<path d="M7 0C7.48323 2.11225e-08 7.87462 0.392415 7.87462 0.875641V6.12538H13.1244C13.6076 6.12538 14 6.51677 14 7C14 7.48323 13.6076 7.87462 13.1244 7.87462H7.87462V13.1244C7.87462 13.6076 7.48323 14 7 14C6.51677 14 6.12538 13.6076 6.12538 13.1244V7.87462H0.875641C0.392415 7.87462 1.06618e-07 7.48323 0 7C2.11225e-08 6.51677 0.392415 6.12538 0.875641 6.12538H6.12538V0.875641C6.12538 0.392415 6.51677 2.49356e-07 7 0Z" fill="#4D53FF"/>
</svg>
